Coordinates
version=1
nRows=16
nColumns=38
inDegrees=no

Units are S.I. units (second, meters, Newtons, ...)
If the header above contains a line with 'inDegrees', this indicates whether rotational values are in degrees (yes) or radians (no).

endheader
time	pelvis_tilt	pelvis_list	pelvis_rotation	pelvis_tx	pelvis_ty	pelvis_tz	hip_flexion_r	hip_adduction_r	hip_rotation_r	knee_angle_r	ankle_angle_r	subtalar_angle_r	mtp_angle_r	hip_flexion_l	hip_adduction_l	hip_rotation_l	knee_angle_l	ankle_angle_l	subtalar_angle_l	mtp_angle_l	lumbar_extension	lumbar_bending	lumbar_rotation	arm_flex_r	arm_add_r	arm_rot_r	elbow_flex_r	pro_sup_r	wrist_flex_r	wrist_dev_r	arm_flex_l	arm_add_l	arm_rot_l	elbow_flex_l	pro_sup_l	wrist_flex_l	wrist_dev_l
0.166667	-0.0607771	-0.013079	0.000819737	0.947578	1.04178	-0.643621	0.643924	0.0478787	-0.248967	-0.272667	-0.0707129	0.0777062	0.000156421	-0.354874	-0.0323056	-0.244287	-0.988763	-0.207296	0.0199807	0.000309144	-0.182014	0.0633766	-0.325278	-0.862935	-0.236891	-0.362246	1.85508	2.12271	0.00322805	-0.0158239	-0.210551	-0.31308	0.117612	2.28868	1.77736	0.0600457	-0.00212831
0.175	-0.0446882	-0.0335817	-0.0124998	0.946787	1.03857	-0.641678	0.619866	0.078667	-0.229684	-0.313239	-0.0875829	0.0777062	0.000156421	-0.343202	-0.0630888	-0.26681	-1.11924	-0.1973	0.0199807	0.000309144	-0.20903	0.0825899	-0.294594	-0.834353	-0.25379	-0.364472	1.86126	2.13756	0.00322805	-0.0158239	-0.226555	-0.309148	0.11675	2.26878	1.77512	0.0600457	-0.00212831
0.183333	-0.0303651	-0.0534246	-0.0253124	0.94542	1.03476	-0.639773	0.599848	0.109142	-0.210462	-0.363031	-0.0909169	0.0777062	0.000156421	-0.326196	-0.0924249	-0.284813	-1.24552	-0.183991	0.0199807	0.000309144	-0.235068	0.100231	-0.264201	-0.800444	-0.271963	-0.362343	1.86502	2.14967	0.00322805	-0.0158239	-0.241468	-0.306038	0.115679	2.24473	1.77121	0.0600457	-0.00212831
0.191667	-0.0178249	-0.0725602	-0.0375899	0.943519	1.03037	-0.637926	0.583748	0.139222	-0.19143	-0.421693	-0.080825	0.0777062	0.000156421	-0.303755	-0.120225	-0.298201	-1.36754	-0.167462	0.0199807	0.000309144	-0.26009	0.116272	-0.234143	-0.761176	-0.291375	-0.355852	1.86634	2.15892	0.00322805	-0.0158239	-0.255267	-0.303749	0.114429	2.21654	1.7657	0.0600457	-0.00212831
0.2	-0.00711028	-0.0908847	-0.0492484	0.941116	1.02551	-0.636174	0.571137	0.168693	-0.17291	-0.488062	-0.057798	0.0777062	0.000156421	-0.275596	-0.146267	-0.306743	-1.48517	-0.147995	0.0199807	0.000309144	-0.283992	0.130673	-0.204519	-0.716497	-0.311916	-0.345015	1.86514	2.1651	0.00322805	-0.0158239	-0.267887	-0.302272	0.113097	2.18424	1.75878	0.0600457	-0.00212831
0.208333	0.00173067	-0.108247	-0.0601373	0.938236	1.0204	-0.634569	0.561126	0.197199	-0.155348	-0.559884	-0.0229985	0.0777062	0.000156421	-0.241265	-0.170184	-0.310086	-1.5981	-0.126136	0.0199807	0.000309144	-0.306601	0.143418	-0.175479	-0.666405	-0.333391	-0.329942	1.86144	2.16786	0.00322805	-0.0158239	-0.279228	-0.30158	0.11188	2.14799	1.75082	0.0600457	-0.00212831
0.216667	0.00869427	-0.124474	-0.0700539	0.934922	1.01532	-0.633171	0.552324	0.224275	-0.139143	-0.633851	0.0216077	0.0777062	0.000156421	-0.200251	-0.191503	-0.307855	-1.70574	-0.102685	0.0199807	0.000309144	-0.327705	0.15454	-0.147173	-0.61107	-0.355528	-0.310926	1.85544	2.16685	0.00322805	-0.0158239	-0.289197	-0.301634	0.111076	2.10827	1.74233	0.0600457	-0.00212831
0.225	0.0138456	-0.139399	-0.078783	0.931237	1.01047	-0.632029	0.542967	0.249394	-0.124464	-0.70603	0.0733965	0.0777062	0.000156421	-0.152163	-0.209712	-0.2998	-1.80721	-0.0785935	0.0199807	0.000309144	-0.347094	0.164119	-0.119701	-0.550984	-0.378005	-0.288528	1.84772	2.16182	0.00322805	-0.0158239	-0.297778	-0.302389	0.111048	2.06594	1.73389	0.0600457	-0.00212831
0.233333	0.0173141	-0.152841	-0.0861633	0.927251	1.00596	-0.631169	0.531187	0.272016	-0.111142	-0.772505	0.129452	0.0777062	0.000156421	-0.0969003	-0.224336	-0.285976	-1.90135	-0.0548229	0.0199807	0.000309144	-0.364588	0.172229	-0.0930591	-0.487059	-0.400477	-0.263633	1.83935	2.1527	0.00322805	-0.0158239	-0.305104	-0.303818	0.112157	2.02244	1.72613	0.0600457	-0.00212831
0.241667	0.0192729	-0.164576	-0.0921692	0.923041	1.00186	-0.630591	0.515335	0.291612	-0.0986694	-0.830028	0.186984	0.0777062	0.000156421	-0.0347618	-0.235002	-0.266884	-1.98675	-0.0322178	0.0199807	0.000309144	-0.380026	0.178861	-0.0671069	-0.420653	-0.422588	-0.237439	1.83185	2.13977	0.00322805	-0.0158239	-0.311511	-0.305934	0.114676	1.97972	1.71969	0.0600457	-0.00212831
0.25	0.019909	-0.174325	-0.0969747	0.918721	0.998253	-0.630267	0.494225	0.307651	-0.0862949	-0.876424	0.243597	0.0777062	0.000156421	0.0335149	-0.241495	-0.243567	-2.06193	-0.0114306	0.0199807	0.000309144	-0.393243	0.183822	-0.0415691	-0.353484	-0.443969	-0.211389	1.82712	2.12369	0.00322805	-0.0158239	-0.31755	-0.308807	0.11871	1.94013	1.71519	0.0600457	-0.00212831
0.258333	0.0193977	-0.181716	-0.10098	0.914447	0.99523	-0.63014	0.467282	0.319591	-0.0731652	-0.9107	0.297374	0.0777062	0.000156421	0.106817	-0.243794	-0.217583	-2.1254	0.0071199	0.0199807	0.000309144	-0.40401	0.186717	-0.0160804	-0.287459	-0.464234	-0.187012	1.82713	2.1055	0.00322805	-0.0158239	-0.323937	-0.31255	0.124158	1.90611	1.71329	0.0600457	-0.00212831
0.266667	0.017852	-0.186296	-0.104761	0.910391	0.992875	-0.63013	0.434498	0.326865	-0.0584754	-0.932855	0.346779	0.0777062	0.000156421	0.183734	-0.24211	-0.190902	-2.17587	0.0232639	0.0199807	0.000309144	-0.412027	0.186965	0.00973433	-0.224457	-0.48297	-0.165751	1.83361	2.08661	0.00322805	-0.0158239	-0.331467	-0.317293	0.130711	1.87982	1.71465	0.0600457	-0.00212831
0.275	0.0153115	-0.187583	-0.108963	0.90671	0.991237	-0.630142	0.396282	0.328895	-0.0416173	-0.943509	0.390463	0.0777062	0.000156421	0.262676	-0.236881	-0.165707	-2.21233	0.0370823	0.0199807	0.000309144	-0.416938	0.183889	0.0361512	-0.166123	-0.499756	-0.148742	1.84779	2.06863	0.00322805	-0.0158239	-0.340906	-0.323138	0.137887	1.86279	1.71987	0.0600457	-0.00212831
0.283333	0.0117716	-0.185126	-0.114142	0.903548	0.990336	-0.630087	0.353265	0.325132	-0.0223256	-0.943474	0.427055	0.0777062	0.000156421	0.341983	-0.228739	-0.144143	-2.23412	0.0488817	0.0199807	0.000309144	-0.418359	0.176841	0.0632398	-0.113707	-0.514182	-0.136633	1.87018	2.05306	0.00322805	-0.0158239	-0.352903	-0.330104	0.145079	1.8557	1.72933	0.0600457	-0.00212831
0.291667	0.00722778	-0.178579	-0.120624	0.901035	0.990175	-0.629897	0.306123	0.315121	-0.000811751	-0.933409	0.454988	0.0777062	0.000156421	0.420034	-0.218439	-0.128062	-2.241	0.0591266	0.0199807	0.000309144	-0.415945	0.16534	0.0907869	-0.0679789	-0.525896	-0.12945	1.9005	2.04094	0.00322805	-0.0158239	-0.367937	-0.338097	0.151607	1.85828	1.74308	0.0600457	-0.00212831
